<svg id="visual" viewBox="0 0 900 600" width="900" height="600" xmlns="http://www.w3.org/2000/svg" xmlns:xlink="http://www.w3.org/1999/xlink" version="1.1">
  <defs>
    <linearGradient id="grad1_0" x1="0%" y1="0%" x2="100%" y2="100%">
      <stop offset="0%" stop-color="#202865" stop-opacity="1"></stop>
      <stop offset="100%" stop-color="#001034" stop-opacity="1"></stop>
    </linearGradient>
  </defs>
  <defs>
    <linearGradient id="grad2_0" x1="0%" y1="0%" x2="100%" y2="100%">
      <stop offset="20%" stop-color="#403880" stop-opacity="1"></stop>
      <stop offset="80%" stop-color="#2061e0" stop-opacity="1"></stop>
    </linearGradient>
  </defs>
  <defs>
    <linearGradient id="grad3_0" x1="0%" y1="0%" x2="100%" y2="100%">
      <stop offset="20%" stop-color="#403880" stop-opacity="1"></stop>
      <stop offset="80%" stop-color="#4098ff" stop-opacity="1"></stop>
    </linearGradient>
  </defs>
  <rect x="0" y="0" width="900" height="600" fill="url(#grad1_0)"></rect>
  <g transform="translate(900, 0)">
    <path d="M0 486.7C-70.3 486.1 -140.5 485.5 -186.3 449.7C-232 413.9 -253.2 342.9 -296.3 296.3C-339.4 249.7 -404.4 227.5 -439.8 182.2C-475.2 136.8 -481 68.4 -486.7 0L0 0Z" fill="url(#grad2_0)"></path>
  </g>
  <g transform="translate(0, 600)">
    <path d="M0 -486.7C55.1 -451.4 110.2 -416.1 160.7 -388C211.2 -360 257 -339.2 309 -309C361 -278.8 419.1 -239.3 449.7 -186.3C480.3 -133.2 483.5 -66.6 486.7 0L0 0Z" fill="url(#grad3_0)"></path>
  </g>
</svg>
